PathFileType	4	(X/Y/Z)	./resultDataOpenSim/trcMotMarkerGrf/sub10/qtm-02-03.trc
DataRate	CameraRate	NumFrames	NumMarkers	Units	OrigDataRate	OrigDataStartFrame	OrigNumFrames
250.000000	250.000000	14	24	m	250.000000	299	477
Frame#	Time	L.Toe.Tip			R.Toe.Tip			L.Ankle.Lat			R.Ankle.Lat			L.Ankle.Med			R.Ankle.Med			L.Heel			R.Heel			L.Knee.Lat			R.Knee.Lat			L.Knee.Med			R.Knee.Med			L.Thigh.Upper			R.Thigh.Upper			L.ASIS			R.ASIS			V.Sacral			L.Acromium			R.Acromium			C7			L.Elbow			R.Elbow			L.Wrist.Lat			R.Wrist.Lat
		X1	Y1	Z1	X2	Y2	Z2	X3	Y3	Z3	X4	Y4	Z4	X5	Y5	Z5	X6	Y6	Z6	X7	Y7	Z7	X8	Y8	Z8	X9	Y9	Z9	X10	Y10	Z10	X11	Y11	Z11	X12	Y12	Z12	X13	Y13	Z13	X14	Y14	Z14	X15	Y15	Z15	X16	Y16	Z16	X17	Y17	Z17	X18	Y18	Z18	X19	Y19	Z19	X20	Y20	Z20	X21	Y21	Z21	X22	Y22	Z22	X23	Y23	Z23	X24	Y24	Z24

299	1.192	0.099335259	0.017553342	-0.075999513	0.89184063	0.079813198	0.045794698	0.0033066371	0.11100099	-0.10710907	0.75517369	0.055833439	0.088573525	0.027754039	0.12664934	-0.027200327	0.76467455	0.087516584	0.0058075525	-0.062040951	0.123154	-0.063288776	0.71550568	0.017170819	0.042528227	0.23346499	0.42455826	-0.15420473	0.66139682	0.44814371	0.11505624	0.24621126	0.39522365	-0.032751023	0.67464763	0.45924383	-0.01372195	0.35798289	0.79273539	-0.20637148	0.50032149	0.82510326	0.15916674	0.45106614	0.89296681	-0.17390929	0.538467	0.9086028	0.057650427	0.31083039	0.91609742	0.023601015	0.42777601	1.3776973	-0.17683901	0.39048073	1.3669015	0.14509493	0.32716769	1.392561	-0.031752197	0.50301753	1.0359415	-0.22912799	0.20532715	1.0837855	0.14081364	0.74947532	1.0095113	-0.20093685	0.19365007	0.8568914	0.23126501
300	1.196	0.10020934	0.017538461	-0.075939078	0.89456774	0.075347545	0.04588555	0.0067546473	0.11362675	-0.10759945	0.75718245	0.055090458	0.088583386	0.031919174	0.128614	-0.027897252	0.76736447	0.08634199	0.0055657574	-0.057836465	0.12712523	-0.063433992	0.71635153	0.017853273	0.042429597	0.2405766	0.42487071	-0.15439749	0.66697951	0.44742259	0.11476174	0.25309316	0.39510272	-0.032963093	0.68012685	0.45848464	-0.013734712	0.36603173	0.79213435	-0.20600366	0.5074658	0.82572742	0.15959514	0.45959857	0.89241251	-0.17311566	0.54632592	0.90954643	0.058396997	0.31537549	0.91728091	0.02471837	0.43387708	1.3779995	-0.17619535	0.39741431	1.3668382	0.1457373	0.33357261	1.3922544	-0.030837802	0.50879891	1.0361617	-0.22827076	0.21325183	1.0831779	0.14113421	0.75515579	1.0088531	-0.20000692	0.20153646	0.85639922	0.23190323
301	1.2	0.10114721	0.01749081	-0.075908974	0.89828628	0.070815745	0.046128228	0.010466562	0.116229	-0.10816359	0.76016002	0.05461452	0.088550941	0.036360873	0.13052202	-0.028672531	0.77097112	0.085577053	0.0052730409	-0.053320729	0.13112193	-0.063600299	0.71767548	0.019159931	0.042395187	0.24765948	0.42511456	-0.15449948	0.67219532	0.44666721	0.11439265	0.26018978	0.39488244	-0.033236701	0.68517076	0.45758027	-0.013866311	0.3742171	0.79153459	-0.20561233	0.51474105	0.8262885	0.16007747	0.46823765	0.89184396	-0.17229287	0.55420728	0.91060096	0.059236142	0.32037559	0.91832641	0.025340161	0.44000624	1.3783296	-0.17553588	0.40437649	1.3667773	0.14640883	0.33994051	1.3920114	-0.029804775	0.5145132	1.0363815	-0.22742779	0.22124879	1.0825538	0.14152242	0.76076325	1.0081098	-0.19912913	0.20955671	0.85586624	0.2325619
302	1.204	0.1021749	0.017420979	-0.075930761	0.90248994	0.066732983	0.046410389	0.014500046	0.11879996	-0.10885535	0.76369217	0.0542823	0.088525345	0.041092861	0.13235748	-0.029546445	0.77503243	0.08501999	0.0050054365	-0.048465362	0.13513459	-0.063821531	0.71928423	0.020665967	0.042510104	0.25493892	0.4253022	-0.154576	0.67726308	0.44589861	0.11403252	0.26753192	0.39456966	-0.033551966	0.68991266	0.45660676	-0.01408172	0.38254916	0.79092997	-0.20517112	0.52219293	0.82682033	0.1606604	0.47696638	0.89125824	-0.17143571	0.56215307	0.91174577	0.060194847	0.32586515	0.91905805	0.02554466	0.44617024	1.3786939	-0.17486872	0.41136438	1.3667302	0.14711434	0.34633333	1.3918473	-0.028774907	0.52016439	1.0365961	-0.22659603	0.22932771	1.0819024	0.14197656	0.76629208	1.0072837	-0.19830833	0.21776557	0.8552929	0.23326404
303	1.208	0.10331691	0.017324348	-0.076013973	0.90645129	0.063370202	0.046486113	0.018892075	0.12133177	-0.10970354	0.76726712	0.053958286	0.088557317	0.046122335	0.13410992	-0.030521342	0.77891506	0.084508005	0.0048496286	-0.043247426	0.13915959	-0.064107748	0.72092624	0.022030372	0.042819087	0.26257262	0.42541588	-0.15465853	0.68250438	0.44520015	0.11379556	0.2751451	0.39416373	-0.033915151	0.69441104	0.45563487	-0.014303961	0.39102378	0.79030259	-0.2046736	0.52980695	0.82739639	0.16134345	0.48575723	0.89066029	-0.17053195	0.57013015	0.91287503	0.061266257	0.33143043	0.91942986	0.025778732	0.45237673	1.3791016	-0.17420121	0.41836534	1.3667016	0.14785363	0.35279226	1.3917489	-0.027829262	0.52575913	1.0368106	-0.22576935	0.23749478	1.0812155	0.14249614	0.77173769	1.0063817	-0.19754131	0.22622082	0.85467296	0.23402334
304	1.212	0.10457871	0.017184934	-0.076159701	0.90961783	0.060520924	0.046174548	0.023630011	0.12380677	-0.11068271	0.77051946	0.053563802	0.088651751	0.051453944	0.13577133	-0.031585094	0.78216532	0.083992786	0.0048463712	-0.037651713	0.14319265	-0.06444682	0.72240612	0.023139214	0.043322937	0.27083879	0.42541215	-0.15476107	0.6881121	0.44474241	0.11374662	0.283048	0.39364849	-0.034345944	0.69872604	0.45474833	-0.014462697	0.39961686	0.78963102	-0.20413753	0.53754773	0.82809802	0.16209418	0.49457709	0.89005741	-0.16957459	0.57804757	0.91389769	0.062398495	0.33741685	0.91941058	0.026000587	0.4586267	1.3795586	-0.17354483	0.42536306	1.3666881	0.14861302	0.35932079	1.3916907	-0.02696024	0.53130013	1.0370378	-0.22494499	0.24575003	1.0804967	0.14308838	0.77710219	1.0054089	-0.19682177	0.2349425	0.8540017	0.23483982
305	1.216	0.10594633	0.016987507	-0.076375458	0.91181183	0.057734006	0.045474033	0.028655877	0.12620481	-0.11171903	0.77324852	0.053126903	0.088806317	0.057094716	0.13733436	-0.032719882	0.78463165	0.083493379	0.0049723658	-0.031666406	0.14722001	-0.064825613	0.72361608	0.024045257	0.043972567	0.2801343	0.42524379	-0.15494095	0.69413262	0.4447022	0.11386218	0.2912619	0.39300278	-0.034860659	0.70294616	0.45404178	-0.014511133	0.40829073	0.78888904	-0.20358804	0.54537822	0.82897222	0.16286844	0.50338965	0.88945451	-0.16856657	0.58586069	0.91480358	0.063541269	0.34520388	0.91884495	0.025398771	0.4649204	1.3800618	-0.17290436	0.43235543	1.366691	0.14937423	0.36591263	1.3916638	-0.026129186	0.53678141	1.0372887	-0.224125	0.25408447	1.0797574	0.1437621	0.78238516	1.0043654	-0.19614939	0.24385515	0.85328905	0.235692
306	1.22	0.10739688	0.016721703	-0.076666623	0.91318863	0.054706554	0.044493353	0.033918409	0.12851205	-0.11274644	0.77536121	0.052736489	0.089025939	0.063043553	0.13879411	-0.033911609	0.78639364	0.083024069	0.005167516	-0.025288615	0.15122626	-0.065245123	0.72454226	0.024839984	0.044687275	0.29051847	0.42489693	-0.15530403	0.70061223	0.44514699	0.11407596	0.2998087	0.39221376	-0.035468123	0.70716589	0.45359128	-0.014435232	0.41701161	0.78805072	-0.20303684	0.55326713	0.83001861	0.16362491	0.5121588	0.88885287	-0.16751501	0.59356344	0.91562638	0.064653331	0.35570353	0.91760867	0.023288451	0.47125957	1.3806002	-0.17227208	0.43935102	1.3667125	0.15012779	0.3725525	1.3916805	-0.025288539	0.5421933	1.0375619	-0.22331909	0.26248488	1.0790081	0.14451621	0.78757634	1.0032495	-0.1955305	0.25282009	0.85255256	0.23654439
307	1.224	0.10890572	0.016393904	-0.077008658	0.91408813	0.05148529	0.043346397	0.03941883	0.13072208	-0.1137551	0.77688185	0.05246319	0.089292731	0.069274944	0.14015589	-0.035149027	0.7876555	0.082575193	0.0053643367	-0.01854489	0.15520983	-0.06572229	0.72525738	0.025574771	0.045391641	0.30133397	0.42441274	-0.15591572	0.70760101	0.44601379	0.1143281	0.30870167	0.39127773	-0.036164696	0.7114622	0.45342959	-0.014263307	0.42575489	0.78711079	-0.2024933	0.56119473	0.83121216	0.16433192	0.52085622	0.88825373	-0.16642386	0.60111958	0.91639142	0.065684516	0.36788214	0.91597997	0.020018174	0.47764243	1.3811587	-0.17163458	0.44635015	1.3667452	0.15087074	0.37920982	1.3917525	-0.024380173	0.54752931	1.0378448	-0.22254266	0.27094098	1.0782549	0.1453385	0.79266917	1.002058	-0.19497164	0.26176373	0.85180097	0.23737617
308	1.228	0.11044951	0.016055419	-0.077353896	0.91488298	0.048416346	0.042147678	0.045191774	0.13284806	-0.11476353	0.77794572	0.052325855	0.089569	0.075737731	0.14144854	-0.036415217	0.78865595	0.082135992	0.0054946698	-0.011500163	0.15919098	-0.066284693	0.72587431	0.026251455	0.04602333	0.31154371	0.42385875	-0.156715	0.71501136	0.44716708	0.11455231	0.31794156	0.3901963	-0.036929822	0.71588427	0.45355095	-0.01406549	0.43450104	0.78609028	-0.20197766	0.56915287	0.83252964	0.16497392	0.52946276	0.8876628	-0.16529394	0.60850111	0.91711197	0.066604521	0.3794442	0.91459272	0.016746277	0.48406075	1.3817229	-0.17098365	0.45334207	1.3667793	0.15159496	0.38586472	1.3918785	-0.023385389	0.55278754	1.0381274	-0.22180684	0.27944712	1.0774997	0.14621336	0.79767708	1.0007908	-0.19448065	0.27072019	0.85103411	0.23819286
309	1.232	0.11201943	0.01582062	-0.077672125	0.91585304	0.045909099	0.041084665	0.051245789	0.13494223	-0.11577219	0.77872399	0.052313273	0.08981856	0.082368408	0.14273458	-0.037687258	0.78959546	0.081714612	0.0054968941	-0.0042359758	0.16321249	-0.066960617	0.72648219	0.026851797	0.046517294	0.32039232	0.42328435	-0.15751948	0.7226055	0.44846239	0.11467104	0.32751833	0.38897358	-0.037736789	0.72045209	0.45393545	-0.013940022	0.44323755	0.7850172	-0.20151346	0.57714541	0.83395389	0.16555106	0.53796442	0.88708989	-0.16412911	0.61576707	0.91780572	0.067431641	0.38906403	0.91391645	0.014573367	0.49049999	1.3822839	-0.17032338	0.46031765	1.3668148	0.15228912	0.39252108	1.392044	-0.022351725	0.55796963	1.0384124	-0.22111234	0.28799606	1.0767423	0.14712704	0.80262489	0.99945871	-0.19406737	0.27975258	0.85024947	0.23900368
310	1.236	0.11364599	0.015841534	-0.077965615	0.91708887	0.044137953	0.040419138	0.057533369	0.13708986	-0.11677886	0.77938743	0.052396429	0.089991097	0.089108636	0.14410099	-0.038944677	0.79059758	0.081329613	0.0053373857	0.0031861371	0.16732873	-0.067764622	0.72710927	0.027367871	0.046812325	0.32766672	0.42270824	-0.15809764	0.73016567	0.44978016	0.11463858	0.33741718	0.3876101	-0.038566014	0.72515373	0.45456408	-0.013990587	0.4519615	0.7839092	-0.20112593	0.58517866	0.83545719	0.16606547	0.54635199	0.88654362	-0.16294136	0.62302698	0.91849114	0.068203298	0.39700299	0.9141091	0.014150724	0.49694656	1.3828384	-0.16966484	0.46728065	1.3668582	0.15295103	0.39918517	1.3922283	-0.021344419	0.56308012	1.038707	-0.22045114	0.29657219	1.075981	0.14806767	0.8075208	0.99807537	-0.19373057	0.28889242	0.84944243	0.23979908
311	1.24	0.1153999	0.016240975	-0.078253032	0.91847198	0.042942146	0.040325078	0.063980597	0.13937076	-0.11779886	0.78006893	0.052525259	0.090029437	0.095923367	0.14562569	-0.040174132	0.79169482	0.080989205	0.0050316364	0.010744935	0.17158028	-0.068684471	0.72772778	0.027806484	0.046894579	0.33370239	0.4221278	-0.1582816	0.73758704	0.4510284	0.11445716	0.34762006	0.38609793	-0.039395279	0.72995485	0.45540623	-0.014289835	0.4606774	0.78277268	-0.20083149	0.59323614	0.83699106	0.16651398	0.55461996	0.88602612	-0.16175082	0.63032824	0.91917005	0.06892792	0.40369815	0.91524261	0.015511211	0.50339494	1.3833853	-0.16901566	0.47424329	1.3669131	0.15358824	0.40584778	1.3924147	-0.020400796	0.56812601	1.0390088	-0.21981528	0.30515635	1.0752116	0.14902357	0.8123465	0.99663882	-0.19345331	0.29815004	0.84860937	0.24056484
312	1.244	0.11735265	0.017054878	-0.078558488	0.91977816	0.042044856	0.040705064	0.07054329	0.1418233	-0.11883429	0.78077333	0.052651742	0.089933073	0.10281368	0.14734443	-0.041363465	0.79281524	0.080688959	0.0046483604	0.018454786	0.17597589	-0.069684052	0.72828372	0.028169386	0.046831299	0.33951116	0.42152311	-0.1581192	0.74481333	0.45213723	0.11415066	0.35809132	0.3844249	-0.040183736	0.7348328	0.45639466	-0.014820675	0.46938678	0.78161193	-0.20060499	0.60126872	0.83850678	0.16689849	0.5627635	0.88553453	-0.16057943	0.63763873	0.91982876	0.069587909	0.40919239	0.91719065	0.017850168	0.50984537	1.3839245	-0.16837959	0.48120656	1.3669791	0.15420867	0.41248715	1.3925938	-0.019531181	0.57311701	1.0393048	-0.21920528	0.31373657	1.0744222	0.14998426	0.81708025	0.99513513	-0.19321966	0.30755123	0.84775551	0.2413222
